<svg width="224" height="194" viewBox="0 0 224 194" fill="none" xmlns="http://www.w3.org/2000/svg">
<path d="M92.3077 194C143.288 194 184.615 152.81 184.615 102C184.615 51.1898 143.288 10 92.3077 10C41.3276 10 0 51.1898 0 102C0 152.81 41.3276 194 92.3077 194Z" fill="#0B36A8"/>
<path d="M91.888 152.792C86.9387 152.792 82.416 151.981 78.32 150.36C74.3093 148.653 70.5973 146.605 67.184 144.216L65.52 151.768H63.728L61.168 122.84L62.96 122.456C63.984 127.235 65.4773 131.416 67.44 135C69.488 138.499 71.792 141.443 74.352 143.832C76.9973 146.136 79.7707 147.885 82.672 149.08C85.6587 150.189 88.6027 150.744 91.504 150.744C95.6853 150.744 99.2267 149.976 102.128 148.44C105.029 146.819 107.248 144.643 108.784 141.912C110.32 139.096 111.088 135.939 111.088 132.44C111.088 128.003 110.277 124.291 108.656 121.304C107.12 118.232 104.731 115.672 101.488 113.624C98.3307 111.491 94.2773 109.656 89.328 108.12C84.464 106.584 80.368 104.877 77.04 103C73.712 101.123 71.024 99.0747 68.976 96.856C66.928 94.552 65.4347 92.0773 64.496 89.432C63.5573 86.7013 63.088 83.7147 63.088 80.472C63.088 77.4853 63.5573 74.7547 64.496 72.28C65.4347 69.72 66.7573 67.4587 68.464 65.496C70.1707 63.448 72.2187 61.6987 74.608 60.248C76.9973 58.7973 79.6427 57.688 82.544 56.92C85.4453 56.152 88.5173 55.768 91.76 55.768C95.856 55.768 99.696 56.5787 103.28 58.2C106.949 59.736 109.979 61.5707 112.368 63.704L114.032 55.768H115.824L118.896 84.824L116.976 85.08C115.696 78.936 113.861 73.8587 111.472 69.848C109.083 65.752 106.267 62.7227 103.024 60.76C99.7813 58.712 96.1547 57.688 92.144 57.688C86.3413 57.688 81.904 59.3947 78.832 62.808C75.8453 66.2213 74.352 70.36 74.352 75.224C74.352 78.8933 75.0773 81.9653 76.528 84.44C77.9787 86.9147 80.24 89.0907 83.312 90.968C86.384 92.76 90.3947 94.5093 95.344 96.216C100.037 97.8373 104.091 99.5867 107.504 101.464C110.917 103.341 113.691 105.432 115.824 107.736C118.043 109.955 119.664 112.429 120.688 115.16C121.797 117.805 122.352 120.792 122.352 124.12C122.352 128.131 121.541 131.885 119.92 135.384C118.384 138.797 116.208 141.827 113.392 144.472C110.576 147.117 107.333 149.165 103.664 150.616C99.9947 152.067 96.0693 152.792 91.888 152.792Z" fill="white"/>
</svg>
